<?xml version="1.0" encoding="utf-8"?>
<!-- Generator: Adobe Illustrator 24.1.1, SVG Export Plug-In . SVG Version: 6.00 Build 0)  -->
<svg version="1.1" id="Layer_1" xmlns="http://www.w3.org/2000/svg" xmlns:xlink="http://www.w3.org/1999/xlink" x="0px" y="0px"
	 viewBox="0 0 32 32" style="enable-background:new 0 0 32 32;" xml:space="preserve">
<style type="text/css">
	.st0{fill:#662D1B;}
	.st1{fill:none;}
</style>
<path class="st0" d="M16,2C9.9,2,5,6.9,5,13c0,2.4,0.8,4.7,2.2,6.6c0,0,0.3,0.4,0.3,0.5L16,30l8.4-10c0-0.1,0.3-0.4,0.3-0.4l0,0
	c1.4-1.9,2.2-4.2,2.2-6.6C27,6.9,22.1,2,16,2z M16,17c-2.2,0-4-1.8-4-4s1.8-4,4-4s4,1.8,4,4C20,15.2,18.2,17,16,17z"/>
<circle id="IconifyId-17a38fcd2fc-ce25f9-9239" class="st1" cx="16" cy="13" r="4"/>
</svg>
